<svg width="11" height="12" viewBox="0 0 11 12" fill="none" xmlns="http://www.w3.org/2000/svg">
<path fill-rule="evenodd" clip-rule="evenodd" d="M5.5 0C5.70835 0 5.90816 0.0790091 6.05548 0.219646C6.20281 0.360282 6.28557 0.551026 6.28557 0.749916V9.43845L9.65725 6.21831C9.80476 6.07749 10.0048 5.99838 10.2134 5.99838C10.422 5.99838 10.6221 6.07749 10.7696 6.21831C10.9171 6.35912 11 6.5501 11 6.74925C11 6.94839 10.9171 7.13937 10.7696 7.28019L6.05619 11.7797C5.98321 11.8495 5.89652 11.9049 5.80108 11.9427C5.70564 11.9805 5.60333 12 5.5 12C5.39667 12 5.29436 11.9805 5.19892 11.9427C5.10348 11.9049 5.01679 11.8495 4.94381 11.7797L0.23038 7.28019C0.0828703 7.13937 -4.1122e-09 6.94839 0 6.74925C4.1122e-09 6.5501 0.0828703 6.35912 0.23038 6.21831C0.377889 6.07749 0.577955 5.99838 0.786565 5.99838C0.995175 5.99838 1.19524 6.07749 1.34275 6.21831L4.71443 9.43845V0.749916C4.71443 0.551026 4.79719 0.360282 4.94452 0.219646C5.09184 0.0790091 5.29165 0 5.5 0Z" fill="white"/>
</svg>
