<svg width="25" height="25" viewBox="0 0 25 25" fill="none" xmlns="http://www.w3.org/2000/svg">
<path fill-rule="evenodd" clip-rule="evenodd" d="M3 0C1.34315 0 0 1.34315 0 3V22C0 23.6569 1.34315 25 3 25H22C23.6569 25 25 23.6569 25 22V3C25 1.34315 23.6569 0 22 0H3ZM15.2804 5.55772C16.6698 5.78147 17.9985 6.17496 19.238 6.70733C19.2489 6.71143 19.2578 6.7191 19.2631 6.72893C21.4595 9.75497 22.5435 13.1699 22.1384 17.1002C22.1375 17.1085 22.1346 17.1165 22.1302 17.1237C22.1257 17.1309 22.1197 17.137 22.1125 17.1418C20.6393 18.164 18.9953 18.9416 17.2499 19.4418C17.2376 19.4453 17.2245 19.4451 17.2123 19.4413C17.2001 19.4374 17.1895 19.4301 17.1818 19.4202C16.8148 18.9411 16.4811 18.4365 16.1894 17.9064C16.1854 17.8991 16.1831 17.8911 16.1827 17.8829C16.1822 17.8747 16.1836 17.8664 16.1867 17.8588C16.1899 17.8511 16.1947 17.8442 16.2009 17.8384C16.2071 17.8327 16.2145 17.8282 16.2226 17.8254C16.7516 17.6387 17.2556 17.4142 17.74 17.1488C17.7487 17.1439 17.7559 17.137 17.7611 17.1288C17.7663 17.1206 17.7692 17.1114 17.7697 17.1018C17.7702 17.0922 17.7682 17.0827 17.7638 17.0741C17.7595 17.0655 17.753 17.058 17.7449 17.0523C17.642 16.9806 17.5407 16.9057 17.4435 16.8301C17.4346 16.8234 17.4239 16.8191 17.4126 16.8179C17.4013 16.8167 17.3898 16.8185 17.3795 16.8232C14.2353 18.1842 10.7897 18.1842 7.60816 16.8232C7.59791 16.8188 7.58658 16.8172 7.57542 16.8185C7.56426 16.8199 7.55372 16.8242 7.54497 16.8309C7.44775 16.9057 7.34567 16.9806 7.24359 17.0523C7.23556 17.0581 7.22916 17.0657 7.22497 17.0744C7.22077 17.0831 7.21891 17.0927 7.21955 17.1022C7.2202 17.1118 7.22332 17.121 7.22865 17.1292C7.23397 17.1373 7.24133 17.144 7.25007 17.1488C7.73624 17.412 8.24333 17.6385 8.76669 17.8262C8.77479 17.8289 8.78218 17.8333 8.78836 17.8389C8.79455 17.8446 8.79938 17.8515 8.80252 17.8591C8.80567 17.8667 8.80707 17.8749 8.80662 17.883C8.80617 17.8912 8.80388 17.8992 8.79991 17.9064C8.51384 18.4368 8.18159 18.9435 7.80665 19.421C7.79874 19.4305 7.78802 19.4375 7.77588 19.441C7.76374 19.4446 7.75074 19.4446 7.7386 19.4411C5.99621 18.9394 4.35487 18.1622 2.8833 17.1418C2.87631 17.1367 2.87048 17.1304 2.86616 17.1231C2.86184 17.1158 2.85913 17.1077 2.85818 17.0994C2.51873 13.6999 3.20979 10.2573 5.73102 6.72739C5.73722 6.71809 5.74627 6.71082 5.75694 6.70656C6.9973 6.17342 8.32597 5.77992 9.71458 5.55617C9.72712 5.55428 9.73996 5.55607 9.75139 5.56131C9.76283 5.56655 9.77231 5.57498 9.77858 5.58549C9.96358 5.89274 10.1305 6.20957 10.2785 6.5345C11.7521 6.32482 13.2502 6.32482 14.7238 6.5345C14.8567 6.24131 15.0463 5.87019 15.2164 5.58549C15.2227 5.57511 15.2323 5.56686 15.2437 5.56189C15.2552 5.55691 15.268 5.55545 15.2804 5.55772ZM7.52796 13.193C7.52796 14.2045 8.31786 15.0293 9.27547 15.0293C10.2485 15.0293 11.023 14.2053 11.023 13.193C11.0384 12.1877 10.2558 11.3567 9.27547 11.3567C8.30247 11.3567 7.52796 12.1807 7.52796 13.193ZM13.989 13.193C13.989 14.2045 14.7781 15.0293 15.7365 15.0293C16.7176 15.0293 17.484 14.2053 17.484 13.193C17.4994 12.1877 16.7168 11.3567 15.7365 11.3567C14.7627 11.3567 13.989 12.1807 13.989 13.193Z" fill="white"/>
</svg>
