<svg width="37" height="30" viewBox="0 0 70 70" fill="none" xmlns="http://www.w3.org/2000/svg">
<path fill-rule="evenodd" clip-rule="evenodd" d="M3.02755 8H67.1997C67.1997 8 70 8.361 70 12.0741V63H0.00691786V11.713C0.00691786 11.713 -0.291256 8 3.02755 8ZM5.39998 57.8559H65.0347V20.5704H5.39998V57.8559ZM14.5331 37.7073L27.2276 30.9914V34.6981L19.5035 38.5659V39.9092L27.2276 44.0994V47.5908L14.5331 40.9304V37.7073ZM42.6768 31.5291L55.37 38.2435V41.4667L42.6768 48.1283V44.637L50.4008 40.4469V39.1035L42.6768 35.2357V31.5291ZM30.1314 51.4585L36.27 27.1237H40.5105L34.4809 51.4585H30.1314Z" fill="white"/>
</svg>
