<svg width="37" height="30" viewBox="0 0 70 70" fill="none" xmlns="http://www.w3.org/2000/svg">
<path d="M46.6977 55.2291L46.334 45.7769C46.0547 45.9323 45.1364 45.6479 44.0206 46.9025C42.223 48.9232 38.5107 50.7229 34.9945 50.2924C29.6301 49.6342 22.2654 40.3004 20.6028 35.7718C18.9401 31.2562 20.6417 29.1499 20.6417 29.1499L20.6028 21.6591C20.4858 17.3806 22.8368 14.5502 24.5384 14.5502C26.2399 14.5502 29.6951 15.9457 29.6951 15.9457C29.6951 15.9457 37.1638 16.6829 39.2809 15.9457C41.3852 15.2084 44.1908 13.8919 46.4639 14.7477C48.737 15.6166 49.3475 20.5138 49.3475 20.5138C49.3475 20.5138 49.2955 31.0455 49.2175 33.8365C49.1397 36.6406 45.3598 38.4441 45.3598 38.4441L38.3067 38.4968C37.7742 37.0092 35.8259 37.1804 35.8259 37.1804C33.0592 37.0882 31.3187 37.8781 31.0329 40.2609C30.7472 42.6437 33.0202 43.5915 35.5401 43.6706C38.06 43.7627 38.3458 42.4857 38.3458 42.4857L43.7752 42.4463C44.6714 42.3935 46.5418 43.144 47.5939 41.1297C48.6461 39.1024 51.7764 38.3651 51.7764 38.3651C53.7248 38.2467 57.3357 36.7986 56.972 31.5327C56.6083 26.2667 53.0364 26.3984 53.0364 26.3984L52.9584 18.7497C52.4258 11.3775 46.8276 7.38856 46.8276 7.38856C46.8276 7.38856 47.9966 -1.37915 44.3857 0.187453C40.7747 1.75406 33.9944 1.50393 33.9944 1.50393C16.8619 2.00419 16.7839 17.3542 16.7839 17.6307V29.0709C15.6539 28.9524 15.4071 29.9793 15.4071 29.9793L15.3682 33.7575C15.1993 35.0739 16.8489 36.3246 16.8489 36.3246C17.2905 39.3921 23.0187 46.9617 23.0187 46.9617L22.0445 55.6373L0.0800598 62.6014C-0.686293 65.7215 4.30149 70 4.30149 70C4.30149 70 61.1285 70 64.8044 70C68.4802 70 70 62.1012 70 62.1012L46.6977 55.2291ZM44.0336 60.2317C44.0336 60.2317 37.7989 64.0995 26.4984 60.2555L26.6336 49.7895C26.6336 49.7895 35.518 58.5704 44.0258 50.1318L44.0336 60.2317Z" fill="white"/>
</svg>
