<svg width="37" height="30" viewBox="0 0 70 55" fill="none" xmlns="http://www.w3.org/2000/svg">
<path fill-rule="evenodd" clip-rule="evenodd" d="M3.02754 2.28882e-05H67.1998C67.1998 2.28882e-05 70 0.349855 70 4.0425V54.6H0.00691787V3.67974C0.00691787 3.67974 -0.291256 2.28882e-05 3.02754 2.28882e-05ZM18.403 7.83894C18.403 6.47842 17.301 5.36415 15.9397 5.36415C14.5656 5.36415 13.4636 6.47842 13.4636 7.83894C13.4636 9.19936 14.5656 10.3136 15.9397 10.3136C17.301 10.3136 18.403 9.19936 18.403 7.83894ZM10.9486 7.83894C10.9486 6.47842 9.84665 5.36415 8.48542 5.36415C7.11123 5.36415 6.00929 6.47842 6.00929 7.83894C6.00929 9.19936 7.11123 10.3136 8.48542 10.3136C9.84665 10.3136 10.9486 9.19936 10.9486 7.83894ZM5.39997 49.495H65.0347V15.5741H5.39997V49.495ZM25.0535 10.3136H62.7272C64.0884 10.3136 65.2033 9.19936 65.2033 7.83894C65.2033 6.47842 64.0884 5.36415 62.7272 5.36415H25.0535C24.3664 5.36415 23.7572 5.64916 23.3034 6.08967C22.8626 6.54318 22.5774 7.15219 22.5774 7.83894C22.5774 9.19936 23.6923 10.3136 25.0535 10.3136ZM12.048 20.5949H28.983V44.1607H12.048V20.5949ZM50.3452 29.7463H36.6798L37.1932 24.7255H50.8585L50.3452 29.7463ZM36.6798 40.1117H58.2728L58.7991 35.0093H37.2061L36.6798 40.1117Z" fill="white"/>
</svg>
