<svg width="37" height="30" viewBox="0 0 70 70" fill="none" xmlns="http://www.w3.org/2000/svg">
<path d="M23.8298 58.0302C19.8215 60.1163 15.9246 62.1454 12.056 64.1603C-3.36474 51.8674 -2.88922 27.6924 7.25784 14.6388C22.3965 -4.83663 44.0822 -2.62831 56.7305 8.20287C74.5852 23.4919 73.7457 50.4212 58.2658 64.3466C54.322 62.2734 50.2519 60.1333 46.0515 57.925C44.4154 53.5795 46.9985 50.2961 49.2015 47.0312C51.4554 43.6897 54.0641 40.8471 51.2875 36.1603C50.2814 34.4625 51.1385 31.536 51.1237 29.1713C51.0928 24.2954 50.4144 23.3696 46.4988 18.5037C45.1247 16.7959 44.903 14.0514 44.1803 11.8573C39.2411 10.7269 34.5988 11.9583 29.9685 12.9594C24.6559 14.1083 19.2223 21.285 18.8678 27.2004C18.6381 31.0483 19.5931 34.9544 17.636 38.7312C16.5304 40.8642 18.3962 43.0312 19.1229 45.0831C19.6267 46.5051 20.5535 47.8902 21.6093 48.9324C24.1025 51.3924 25.0347 54.2378 23.8298 58.0302Z" fill="white"/>
<path d="M42.1077 24.1132C45.6459 27.0169 46.7582 30.7781 47.1275 34.9615C47.2431 36.2612 47.7951 37.5096 47.998 38.8079C48.1189 39.5857 48.2545 40.6864 47.8637 41.1783C44.8413 44.9821 43.2066 49.7728 39.5259 53.2039C37.4304 55.1592 35.5378 55.7991 33.3348 55.5617C28.1108 51.937 25.4888 46.3117 22.1682 41.2821C21.9332 40.9252 21.506 40.3707 21.6135 40.1503C23.7815 35.6838 22.3402 30.3046 24.785 25.976C25.5305 24.6565 26.4291 23.8772 28.5179 25.0091C31.7659 26.7667 38.4809 25.8751 42.1077 24.1132Z" fill="white"/>
<path d="M28.4343 67.8377V56.9126C29.7481 58.1256 31.0497 59.2887 32.0102 59.7467C33.5858 60.4989 36.1689 60.5117 37.7781 59.8192C39.0744 59.2603 40.0577 58.1868 41.7435 57.0932V67.7481C35.2823 70.737 34.8149 70.7342 28.4343 67.8377Z" fill="white"/>
</svg>
