<svg width="37" height="30" viewBox="0 0 70 70" fill="none" xmlns="http://www.w3.org/2000/svg">
<path d="M58.7256 0.730696C48.8604 -0.91337 37.3183 0.730696 37.3183 0.730696L22.7884 6.25308L8.42762 20.867L0 33.7526V58.0622C0 58.0622 2.29716 68.6432 10.8939 69.8096C19.5047 70.9899 66.0116 66.2967 66.0116 66.2967L70 12.8996C70 12.8996 68.5907 2.36071 58.7256 0.730696ZM10.8939 27.1903L23.6622 12.4358L39.2631 5.40996L44.548 9.1618L39.7001 22.8061L21.8442 40.7785L9.83693 42.563L5.15805 36.4927L10.8939 27.1903ZM44.548 22.8061L48.1558 13.0541L58.7256 22.8061H44.548ZM61.6288 27.1903C57.1471 37.111 49.2974 44.9237 49.2974 44.9237L44.548 27.8087L61.6288 27.1903ZM44.548 46.329L27.8055 42.0291L40.2356 30.085L44.548 46.329ZM6.06 45.8933C6.87739 54.5915 11.6831 64.779 11.6831 64.779C1.818 63.8938 6.06 45.8933 6.06 45.8933ZM16.0942 59.2426L10.8939 48.2681L19.3498 46.329L16.0942 59.2426ZM25.1701 45.4577L42.6878 51.6124C36.0922 59.7765 20.1389 64.0764 20.1389 64.0764L25.1701 45.4577ZM37.3183 62.587L48.2404 53.5375L57.9364 62.587H37.3183ZM61.2765 59.2426L52.116 50.1089L62.7844 38.0805L61.2765 59.2426ZM64.0951 19.5462C62.3334 17.7897 47.6203 6.64652 47.6203 6.64652C69.8309 3.56917 64.0951 19.5462 64.0951 19.5462Z" fill="white"/>
</svg>
